<svg width="242" height="40" viewBox="0 0 242 40" fill="none" xmlns="http://www.w3.org/2000/svg">
<path d="M0.869318 31V1.90909H11.7784C14.0133 1.90909 15.8883 2.29735 17.4034 3.07386C18.928 3.85038 20.0786 4.93939 20.8551 6.34091C21.6411 7.73295 22.0341 9.35701 22.0341 11.2131C22.0341 13.0786 21.6364 14.6979 20.8409 16.071C20.0549 17.4347 18.8949 18.4905 17.3608 19.2386C15.8267 19.9773 13.9422 20.3466 11.7074 20.3466H3.9375V15.9716H10.9972C12.304 15.9716 13.3741 15.7917 14.2074 15.4318C15.0407 15.0625 15.6563 14.5275 16.054 13.8267C16.4612 13.1165 16.6648 12.2453 16.6648 11.2131C16.6648 10.1809 16.4612 9.30019 16.054 8.57102C15.6468 7.83239 15.0265 7.27367 14.1932 6.89489C13.3598 6.50663 12.285 6.3125 10.9688 6.3125H6.1392V31H0.869318ZM15.8977 17.8182L23.0994 31H17.2188L10.1449 17.8182H15.8977ZM26.6577 31V9.18182H31.7997V31H26.6577ZM29.2429 6.08523C28.4285 6.08523 27.7277 5.81534 27.1406 5.27557C26.5535 4.72632 26.2599 4.06818 26.2599 3.30114C26.2599 2.52462 26.5535 1.86648 27.1406 1.3267C27.7277 0.777461 28.4285 0.50284 29.2429 0.50284C30.0668 0.50284 30.7675 0.777461 31.3452 1.3267C31.9323 1.86648 32.2259 2.52462 32.2259 3.30114C32.2259 4.06818 31.9323 4.72632 31.3452 5.27557C30.7675 5.81534 30.0668 6.08523 29.2429 6.08523ZM46.6044 31.4261C44.4264 31.4261 42.5561 30.9479 40.9936 29.9915C39.4406 29.035 38.2427 27.714 37.3999 26.0284C36.5665 24.3333 36.1499 22.3826 36.1499 20.1761C36.1499 17.9602 36.576 16.0047 37.4283 14.3097C38.2805 12.6051 39.4832 11.2794 41.0362 10.3324C42.5987 9.37595 44.4453 8.89773 46.576 8.89773C48.3468 8.89773 49.9141 9.22443 51.2777 9.87784C52.6508 10.5218 53.7446 11.4356 54.5589 12.6193C55.3733 13.7936 55.8374 15.1667 55.951 16.7386H51.0362C50.8374 15.6875 50.3639 14.8116 49.6158 14.1108C48.8771 13.4006 47.8875 13.0455 46.647 13.0455C45.5959 13.0455 44.6726 13.3295 43.8771 13.8977C43.0817 14.4564 42.4614 15.2614 42.0163 16.3125C41.5807 17.3636 41.3629 18.6231 41.3629 20.0909C41.3629 21.5777 41.5807 22.8561 42.0163 23.9261C42.4519 24.9867 43.0627 25.8059 43.8487 26.3835C44.6442 26.9517 45.5769 27.2358 46.647 27.2358C47.4046 27.2358 48.0817 27.0937 48.6783 26.8097C49.2843 26.5161 49.791 26.0947 50.1982 25.5455C50.6054 24.9962 50.8847 24.3286 51.0362 23.5426H55.951C55.8279 25.0862 55.3733 26.4545 54.5874 27.6477C53.8014 28.8314 52.7313 29.7595 51.3771 30.4318C50.023 31.0947 48.4321 31.4261 46.6044 31.4261ZM64.8608 24.1534L64.8466 17.946H65.6705L73.5114 9.18182H79.5199L69.875 19.9205H68.8097L64.8608 24.1534ZM60.1733 31V1.90909H65.3153V31H60.1733ZM73.8665 31L66.7642 21.071L70.2301 17.4489L80.017 31H73.8665ZM101.562 31.4261C99.5732 31.4261 97.8639 31.0663 96.4339 30.3466C95.004 29.6269 93.9008 28.6562 93.1243 27.4347C92.3572 26.2036 91.9737 24.8163 91.9737 23.2727C91.9737 22.108 92.2105 21.0758 92.6839 20.1761C93.1669 19.2765 93.8298 18.4432 94.6726 17.6761C95.5249 16.9091 96.5097 16.1468 97.6271 15.3892L102.783 11.8807C103.541 11.3883 104.114 10.8674 104.502 10.3182C104.9 9.76894 105.099 9.125 105.099 8.38636C105.099 7.76136 104.834 7.16951 104.303 6.6108C103.782 6.05208 103.063 5.77273 102.144 5.77273C101.529 5.77273 100.984 5.91951 100.511 6.21307C100.047 6.49716 99.6821 6.87121 99.4169 7.33523C99.1612 7.79924 99.0334 8.29167 99.0334 8.8125C99.0334 9.44697 99.2086 10.0909 99.5589 10.7443C99.9188 11.3977 100.383 12.0748 100.951 12.7756C101.529 13.4763 102.144 14.2197 102.798 15.0057L116.448 31H110.88L99.5447 18.017C98.7019 17.0322 97.8875 16.0616 97.1016 15.1051C96.325 14.1487 95.6858 13.1544 95.1839 12.1222C94.6915 11.0805 94.4453 9.9536 94.4453 8.74148C94.4453 7.36837 94.7625 6.14205 95.397 5.0625C96.0315 3.97348 96.9169 3.11648 98.0533 2.49148C99.1991 1.86648 100.539 1.55398 102.073 1.55398C103.607 1.55398 104.924 1.85701 106.022 2.46307C107.121 3.06913 107.968 3.87405 108.565 4.87784C109.161 5.88163 109.46 6.97538 109.46 8.15909C109.46 9.5322 109.119 10.7633 108.437 11.8523C107.755 12.9318 106.808 13.9119 105.596 14.7926L99.7152 19.0966C98.7493 19.7973 98.058 20.5076 97.6413 21.2273C97.2247 21.9375 97.0163 22.5436 97.0163 23.0455C97.0163 23.8125 97.2105 24.5085 97.5987 25.1335C97.987 25.7585 98.5315 26.2604 99.2322 26.6392C99.9425 27.0085 100.771 27.1932 101.718 27.1932C102.76 27.1932 103.787 26.9612 104.8 26.4972C105.814 26.0237 106.737 25.3513 107.57 24.4801C108.404 23.6089 109.067 22.5672 109.559 21.3551C110.051 20.1335 110.298 18.7794 110.298 17.2926H114.715C114.715 19.1297 114.512 20.7301 114.104 22.0938C113.697 23.4479 113.172 24.5938 112.528 25.5312C111.884 26.4593 111.202 27.2027 110.482 27.7614C110.255 27.9223 110.037 28.0833 109.829 28.2443C109.621 28.4053 109.403 28.5663 109.175 28.7273C108.153 29.6553 106.955 30.3371 105.582 30.7727C104.218 31.2083 102.878 31.4261 101.562 31.4261ZM129.541 1.90909H135.99L144.626 22.9886H144.967L153.604 1.90909H160.053V31H154.996V11.0142H154.726L146.686 30.9148H142.908L134.868 10.9716H134.598V31H129.541V1.90909ZM175.081 31.4261C172.95 31.4261 171.104 30.9574 169.541 30.0199C167.979 29.0824 166.767 27.7708 165.905 26.0852C165.053 24.3996 164.626 22.4299 164.626 20.1761C164.626 17.9223 165.053 15.9479 165.905 14.2528C166.767 12.5578 167.979 11.2415 169.541 10.304C171.104 9.36648 172.95 8.89773 175.081 8.89773C177.212 8.89773 179.058 9.36648 180.621 10.304C182.183 11.2415 183.391 12.5578 184.243 14.2528C185.105 15.9479 185.536 17.9223 185.536 20.1761C185.536 22.4299 185.105 24.3996 184.243 26.0852C183.391 27.7708 182.183 29.0824 180.621 30.0199C179.058 30.9574 177.212 31.4261 175.081 31.4261ZM175.109 27.3068C176.265 27.3068 177.231 26.9896 178.007 26.3551C178.784 25.7112 179.361 24.8494 179.74 23.7699C180.128 22.6903 180.322 21.4877 180.322 20.1619C180.322 18.8267 180.128 17.6193 179.74 16.5398C179.361 15.4508 178.784 14.5843 178.007 13.9403C177.231 13.2964 176.265 12.9744 175.109 12.9744C173.926 12.9744 172.941 13.2964 172.155 13.9403C171.378 14.5843 170.796 15.4508 170.408 16.5398C170.029 17.6193 169.839 18.8267 169.839 20.1619C169.839 21.4877 170.029 22.6903 170.408 23.7699C170.796 24.8494 171.378 25.7112 172.155 26.3551C172.941 26.9896 173.926 27.3068 175.109 27.3068ZM189.9 31V9.18182H194.886V12.8182H195.113C195.511 11.5587 196.192 10.5881 197.158 9.90625C198.134 9.21496 199.246 8.86932 200.496 8.86932C200.781 8.86932 201.098 8.88352 201.448 8.91193C201.808 8.93087 202.106 8.96401 202.343 9.01136V13.7415C202.125 13.6657 201.78 13.5994 201.306 13.5426C200.842 13.4763 200.392 13.4432 199.957 13.4432C199.019 13.4432 198.176 13.6468 197.428 14.054C196.69 14.4517 196.107 15.0057 195.681 15.7159C195.255 16.4261 195.042 17.2453 195.042 18.1733V31H189.9ZM217.826 9.18182V13.1591H205.283V9.18182H217.826ZM208.38 3.95455H213.522V24.4375C213.522 25.1288 213.626 25.6591 213.835 26.0284C214.052 26.3883 214.336 26.6345 214.687 26.767C215.037 26.8996 215.425 26.9659 215.852 26.9659C216.174 26.9659 216.467 26.9422 216.732 26.8949C217.007 26.8475 217.215 26.8049 217.357 26.767L218.224 30.7869C217.949 30.8816 217.556 30.9858 217.045 31.0994C216.543 31.2131 215.927 31.2794 215.198 31.2983C213.91 31.3362 212.75 31.142 211.718 30.7159C210.686 30.2803 209.867 29.608 209.261 28.6989C208.664 27.7898 208.371 26.6534 208.38 25.2898V3.95455ZM225.322 39.1818C224.622 39.1818 223.973 39.125 223.376 39.0114C222.789 38.9072 222.321 38.7841 221.97 38.642L223.163 34.6364C223.911 34.8542 224.579 34.9583 225.166 34.9489C225.753 34.9394 226.269 34.7547 226.714 34.3949C227.169 34.0445 227.553 33.4574 227.865 32.6335L228.305 31.4545L220.393 9.18182H225.848L230.876 25.6591H231.104L236.146 9.18182H241.615L232.879 33.642C232.472 34.7973 231.932 35.7869 231.26 36.6108C230.588 37.4441 229.764 38.0786 228.788 38.5142C227.822 38.9593 226.667 39.1818 225.322 39.1818Z" fill="#A8A8B3"/>
</svg>
