<svg width="399" height="50" viewBox="0 0 399 50" fill="none" xmlns="http://www.w3.org/2000/svg">
<path d="M23.4062 3.5V49H14.0625V3.5H23.4062ZM37.4062 3.5V10.8438H0.28125V3.5H37.4062ZM54.8125 49.625C52.1875 49.625 49.8333 49.2083 47.75 48.375C45.6667 47.5208 43.8958 46.3438 42.4375 44.8438C41 43.3438 39.8958 41.6042 39.125 39.625C38.3542 37.625 37.9688 35.5 37.9688 33.25V32C37.9688 29.4375 38.3333 27.0938 39.0625 24.9688C39.7917 22.8438 40.8333 21 42.1875 19.4375C43.5625 17.875 45.2292 16.6771 47.1875 15.8438C49.1458 14.9896 51.3542 14.5625 53.8125 14.5625C56.2083 14.5625 58.3333 14.9583 60.1875 15.75C62.0417 16.5417 63.5938 17.6667 64.8438 19.125C66.1146 20.5833 67.0729 22.3333 67.7188 24.375C68.3646 26.3958 68.6875 28.6458 68.6875 31.125V34.875H41.8125V28.875H59.8438V28.1875C59.8438 26.9375 59.6146 25.8229 59.1562 24.8438C58.7188 23.8438 58.0521 23.0521 57.1562 22.4688C56.2604 21.8854 55.1146 21.5938 53.7188 21.5938C52.5312 21.5938 51.5104 21.8542 50.6562 22.375C49.8021 22.8958 49.1042 23.625 48.5625 24.5625C48.0417 25.5 47.6458 26.6042 47.375 27.875C47.125 29.125 47 30.5 47 32V33.25C47 34.6042 47.1875 35.8542 47.5625 37C47.9583 38.1458 48.5104 39.1354 49.2188 39.9688C49.9479 40.8021 50.8229 41.4479 51.8438 41.9062C52.8854 42.3646 54.0625 42.5938 55.375 42.5938C57 42.5938 58.5104 42.2812 59.9062 41.6562C61.3229 41.0104 62.5417 40.0417 63.5625 38.75L67.9375 43.5C67.2292 44.5208 66.2604 45.5 65.0312 46.4375C63.8229 47.375 62.3646 48.1458 60.6562 48.75C58.9479 49.3333 57 49.625 54.8125 49.625ZM92.0938 39.6562C92.0938 39.0104 91.9062 38.4271 91.5312 37.9062C91.1562 37.3854 90.4583 36.9062 89.4375 36.4688C88.4375 36.0104 86.9896 35.5938 85.0938 35.2188C83.3854 34.8438 81.7917 34.375 80.3125 33.8125C78.8542 33.2292 77.5833 32.5312 76.5 31.7188C75.4375 30.9062 74.6042 29.9479 74 28.8438C73.3958 27.7188 73.0938 26.4375 73.0938 25C73.0938 23.5833 73.3958 22.25 74 21C74.625 19.75 75.5104 18.6458 76.6562 17.6875C77.8229 16.7083 79.2396 15.9479 80.9062 15.4062C82.5938 14.8438 84.4896 14.5625 86.5938 14.5625C89.5312 14.5625 92.0521 15.0312 94.1562 15.9688C96.2812 16.9062 97.9062 18.1979 99.0312 19.8438C100.177 21.4688 100.75 23.3229 100.75 25.4062H91.75C91.75 24.5312 91.5625 23.75 91.1875 23.0625C90.8333 22.3542 90.2708 21.8021 89.5 21.4062C88.75 20.9896 87.7708 20.7812 86.5625 20.7812C85.5625 20.7812 84.6979 20.9583 83.9688 21.3125C83.2396 21.6458 82.6771 22.1042 82.2812 22.6875C81.9062 23.25 81.7188 23.875 81.7188 24.5625C81.7188 25.0833 81.8229 25.5521 82.0312 25.9688C82.2604 26.3646 82.625 26.7292 83.125 27.0625C83.625 27.3958 84.2708 27.7083 85.0625 28C85.875 28.2708 86.875 28.5208 88.0625 28.75C90.5 29.25 92.6771 29.9062 94.5938 30.7188C96.5104 31.5104 98.0312 32.5938 99.1562 33.9688C100.281 35.3229 100.844 37.1042 100.844 39.3125C100.844 40.8125 100.51 42.1875 99.8438 43.4375C99.1771 44.6875 98.2188 45.7812 96.9688 46.7188C95.7188 47.6354 94.2188 48.3542 92.4688 48.875C90.7396 49.375 88.7917 49.625 86.625 49.625C83.4792 49.625 80.8125 49.0625 78.625 47.9375C76.4583 46.8125 74.8125 45.3854 73.6875 43.6562C72.5833 41.9062 72.0312 40.1146 72.0312 38.2812H80.5625C80.6042 39.5104 80.9167 40.5 81.5 41.25C82.1042 42 82.8646 42.5417 83.7812 42.875C84.7188 43.2083 85.7292 43.375 86.8125 43.375C87.9792 43.375 88.9479 43.2188 89.7188 42.9062C90.4896 42.5729 91.0729 42.1354 91.4688 41.5938C91.8854 41.0312 92.0938 40.3854 92.0938 39.6562ZM123.25 15.1875V21.5625H103.562V15.1875H123.25ZM108.438 6.84375H117.438V38.8125C117.438 39.7917 117.562 40.5417 117.812 41.0625C118.083 41.5833 118.479 41.9479 119 42.1562C119.521 42.3438 120.177 42.4375 120.969 42.4375C121.531 42.4375 122.031 42.4167 122.469 42.375C122.927 42.3125 123.312 42.25 123.625 42.1875L123.656 48.8125C122.885 49.0625 122.052 49.2604 121.156 49.4062C120.26 49.5521 119.271 49.625 118.188 49.625C116.208 49.625 114.479 49.3021 113 48.6562C111.542 47.9896 110.417 46.9271 109.625 45.4688C108.833 44.0104 108.438 42.0938 108.438 39.7188V6.84375ZM143.938 49.625C141.312 49.625 138.958 49.2083 136.875 48.375C134.792 47.5208 133.021 46.3438 131.562 44.8438C130.125 43.3438 129.021 41.6042 128.25 39.625C127.479 37.625 127.094 35.5 127.094 33.25V32C127.094 29.4375 127.458 27.0938 128.188 24.9688C128.917 22.8438 129.958 21 131.312 19.4375C132.688 17.875 134.354 16.6771 136.312 15.8438C138.271 14.9896 140.479 14.5625 142.938 14.5625C145.333 14.5625 147.458 14.9583 149.312 15.75C151.167 16.5417 152.719 17.6667 153.969 19.125C155.24 20.5833 156.198 22.3333 156.844 24.375C157.49 26.3958 157.812 28.6458 157.812 31.125V34.875H130.938V28.875H148.969V28.1875C148.969 26.9375 148.74 25.8229 148.281 24.8438C147.844 23.8438 147.177 23.0521 146.281 22.4688C145.385 21.8854 144.24 21.5938 142.844 21.5938C141.656 21.5938 140.635 21.8542 139.781 22.375C138.927 22.8958 138.229 23.625 137.688 24.5625C137.167 25.5 136.771 26.6042 136.5 27.875C136.25 29.125 136.125 30.5 136.125 32V33.25C136.125 34.6042 136.312 35.8542 136.688 37C137.083 38.1458 137.635 39.1354 138.344 39.9688C139.073 40.8021 139.948 41.4479 140.969 41.9062C142.01 42.3646 143.188 42.5938 144.5 42.5938C146.125 42.5938 147.635 42.2812 149.031 41.6562C150.448 41.0104 151.667 40.0417 152.688 38.75L157.062 43.5C156.354 44.5208 155.385 45.5 154.156 46.4375C152.948 47.375 151.49 48.1458 149.781 48.75C148.073 49.3333 146.125 49.625 143.938 49.625ZM198.094 3.5V49H188.75V3.5H198.094ZM212.094 3.5V10.8438H174.969V3.5H212.094ZM229.5 49.625C226.875 49.625 224.521 49.2083 222.438 48.375C220.354 47.5208 218.583 46.3438 217.125 44.8438C215.688 43.3438 214.583 41.6042 213.812 39.625C213.042 37.625 212.656 35.5 212.656 33.25V32C212.656 29.4375 213.021 27.0938 213.75 24.9688C214.479 22.8438 215.521 21 216.875 19.4375C218.25 17.875 219.917 16.6771 221.875 15.8438C223.833 14.9896 226.042 14.5625 228.5 14.5625C230.896 14.5625 233.021 14.9583 234.875 15.75C236.729 16.5417 238.281 17.6667 239.531 19.125C240.802 20.5833 241.76 22.3333 242.406 24.375C243.052 26.3958 243.375 28.6458 243.375 31.125V34.875H216.5V28.875H234.531V28.1875C234.531 26.9375 234.302 25.8229 233.844 24.8438C233.406 23.8438 232.74 23.0521 231.844 22.4688C230.948 21.8854 229.802 21.5938 228.406 21.5938C227.219 21.5938 226.198 21.8542 225.344 22.375C224.49 22.8958 223.792 23.625 223.25 24.5625C222.729 25.5 222.333 26.6042 222.062 27.875C221.812 29.125 221.688 30.5 221.688 32V33.25C221.688 34.6042 221.875 35.8542 222.25 37C222.646 38.1458 223.198 39.1354 223.906 39.9688C224.635 40.8021 225.51 41.4479 226.531 41.9062C227.573 42.3646 228.75 42.5938 230.062 42.5938C231.688 42.5938 233.198 42.2812 234.594 41.6562C236.01 41.0104 237.229 40.0417 238.25 38.75L242.625 43.5C241.917 44.5208 240.948 45.5 239.719 46.4375C238.51 47.375 237.052 48.1458 235.344 48.75C233.635 49.3333 231.688 49.625 229.5 49.625ZM223.156 10.5938L229.281 0.96875H239.062L230.469 10.5938H223.156ZM262.469 42.5938C263.573 42.5938 264.552 42.3854 265.406 41.9688C266.26 41.5312 266.927 40.9271 267.406 40.1562C267.906 39.3646 268.167 38.4375 268.188 37.375H276.656C276.635 39.75 276 41.8646 274.75 43.7188C273.5 45.5521 271.823 47 269.719 48.0625C267.615 49.1042 265.26 49.625 262.656 49.625C260.031 49.625 257.74 49.1875 255.781 48.3125C253.844 47.4375 252.229 46.2292 250.938 44.6875C249.646 43.125 248.677 41.3125 248.031 39.25C247.385 37.1667 247.062 34.9375 247.062 32.5625V31.6562C247.062 29.2604 247.385 27.0312 248.031 24.9688C248.677 22.8854 249.646 21.0729 250.938 19.5312C252.229 17.9688 253.844 16.75 255.781 15.875C257.719 15 259.99 14.5625 262.594 14.5625C265.365 14.5625 267.792 15.0938 269.875 16.1562C271.979 17.2188 273.625 18.7396 274.812 20.7188C276.021 22.6771 276.635 25 276.656 27.6875H268.188C268.167 26.5625 267.927 25.5417 267.469 24.625C267.031 23.7083 266.385 22.9792 265.531 22.4375C264.698 21.875 263.667 21.5938 262.438 21.5938C261.125 21.5938 260.052 21.875 259.219 22.4375C258.385 22.9792 257.74 23.7292 257.281 24.6875C256.823 25.625 256.5 26.6979 256.312 27.9062C256.146 29.0938 256.062 30.3438 256.062 31.6562V32.5625C256.062 33.875 256.146 35.1354 256.312 36.3438C256.479 37.5521 256.792 38.625 257.25 39.5625C257.729 40.5 258.385 41.2396 259.219 41.7812C260.052 42.3229 261.135 42.5938 262.469 42.5938ZM290.688 22.4062V49H281.688V15.1875H290.125L290.688 22.4062ZM289.375 30.9062H286.938C286.938 28.4062 287.26 26.1562 287.906 24.1562C288.552 22.1354 289.458 20.4167 290.625 19C291.792 17.5625 293.177 16.4688 294.781 15.7188C296.406 14.9479 298.219 14.5625 300.219 14.5625C301.802 14.5625 303.25 14.7917 304.562 15.25C305.875 15.7083 307 16.4375 307.938 17.4375C308.896 18.4375 309.625 19.7604 310.125 21.4062C310.646 23.0521 310.906 25.0625 310.906 27.4375V49H301.844V27.4062C301.844 25.9062 301.635 24.7396 301.219 23.9062C300.802 23.0729 300.188 22.4896 299.375 22.1562C298.583 21.8021 297.604 21.625 296.438 21.625C295.229 21.625 294.177 21.8646 293.281 22.3438C292.406 22.8229 291.677 23.4896 291.094 24.3438C290.531 25.1771 290.104 26.1562 289.812 27.2812C289.521 28.4062 289.375 29.6146 289.375 30.9062ZM327.25 15.1875V49H318.219V15.1875H327.25ZM317.656 6.375C317.656 5.0625 318.115 3.97917 319.031 3.125C319.948 2.27083 321.177 1.84375 322.719 1.84375C324.24 1.84375 325.458 2.27083 326.375 3.125C327.312 3.97917 327.781 5.0625 327.781 6.375C327.781 7.6875 327.312 8.77083 326.375 9.625C325.458 10.4792 324.24 10.9062 322.719 10.9062C321.177 10.9062 319.948 10.4792 319.031 9.625C318.115 8.77083 317.656 7.6875 317.656 6.375ZM348.656 42.5938C349.76 42.5938 350.74 42.3854 351.594 41.9688C352.448 41.5312 353.115 40.9271 353.594 40.1562C354.094 39.3646 354.354 38.4375 354.375 37.375H362.844C362.823 39.75 362.188 41.8646 360.938 43.7188C359.688 45.5521 358.01 47 355.906 48.0625C353.802 49.1042 351.448 49.625 348.844 49.625C346.219 49.625 343.927 49.1875 341.969 48.3125C340.031 47.4375 338.417 46.2292 337.125 44.6875C335.833 43.125 334.865 41.3125 334.219 39.25C333.573 37.1667 333.25 34.9375 333.25 32.5625V31.6562C333.25 29.2604 333.573 27.0312 334.219 24.9688C334.865 22.8854 335.833 21.0729 337.125 19.5312C338.417 17.9688 340.031 16.75 341.969 15.875C343.906 15 346.177 14.5625 348.781 14.5625C351.552 14.5625 353.979 15.0938 356.062 16.1562C358.167 17.2188 359.812 18.7396 361 20.7188C362.208 22.6771 362.823 25 362.844 27.6875H354.375C354.354 26.5625 354.115 25.5417 353.656 24.625C353.219 23.7083 352.573 22.9792 351.719 22.4375C350.885 21.875 349.854 21.5938 348.625 21.5938C347.312 21.5938 346.24 21.875 345.406 22.4375C344.573 22.9792 343.927 23.7292 343.469 24.6875C343.01 25.625 342.688 26.6979 342.5 27.9062C342.333 29.0938 342.25 30.3438 342.25 31.6562V32.5625C342.25 33.875 342.333 35.1354 342.5 36.3438C342.667 37.5521 342.979 38.625 343.438 39.5625C343.917 40.5 344.573 41.2396 345.406 41.7812C346.24 42.3229 347.323 42.5938 348.656 42.5938ZM366.625 32.4375V31.7812C366.625 29.3021 366.979 27.0208 367.688 24.9375C368.396 22.8333 369.427 21.0104 370.781 19.4688C372.135 17.9271 373.802 16.7292 375.781 15.875C377.76 15 380.031 14.5625 382.594 14.5625C385.156 14.5625 387.438 15 389.438 15.875C391.438 16.7292 393.115 17.9271 394.469 19.4688C395.844 21.0104 396.885 22.8333 397.594 24.9375C398.302 27.0208 398.656 29.3021 398.656 31.7812V32.4375C398.656 34.8958 398.302 37.1771 397.594 39.2812C396.885 41.3646 395.844 43.1875 394.469 44.75C393.115 46.2917 391.448 47.4896 389.469 48.3438C387.49 49.1979 385.219 49.625 382.656 49.625C380.094 49.625 377.812 49.1979 375.812 48.3438C373.833 47.4896 372.156 46.2917 370.781 44.75C369.427 43.1875 368.396 41.3646 367.688 39.2812C366.979 37.1771 366.625 34.8958 366.625 32.4375ZM375.625 31.7812V32.4375C375.625 33.8542 375.75 35.1771 376 36.4062C376.25 37.6354 376.646 38.7188 377.188 39.6562C377.75 40.5729 378.479 41.2917 379.375 41.8125C380.271 42.3333 381.365 42.5938 382.656 42.5938C383.906 42.5938 384.979 42.3333 385.875 41.8125C386.771 41.2917 387.49 40.5729 388.031 39.6562C388.573 38.7188 388.969 37.6354 389.219 36.4062C389.49 35.1771 389.625 33.8542 389.625 32.4375V31.7812C389.625 30.4062 389.49 29.1146 389.219 27.9062C388.969 26.6771 388.562 25.5938 388 24.6562C387.458 23.6979 386.74 22.9479 385.844 22.4062C384.948 21.8646 383.865 21.5938 382.594 21.5938C381.323 21.5938 380.24 21.8646 379.344 22.4062C378.469 22.9479 377.75 23.6979 377.188 24.6562C376.646 25.5938 376.25 26.6771 376 27.9062C375.75 29.1146 375.625 30.4062 375.625 31.7812Z" fill="#A8A8B3"/>
</svg>
